<svg id="svg" version="1.1" xmlns="http://www.w3.org/2000/svg" xmlns:xlink="http://www.w3.org/1999/xlink" width="400" height="225" viewBox="0, 0, 400,225"><g id="svgg"><path id="path0" d="M174.167 55.636 C 138.155 59.548,122.672 103.732,148.324 129.384 C 164.826 145.886,189.809 146.510,208.107 130.875 C 208.992 130.119,209.473 131.041,203.506 122.046 L 198.438 114.405 196.859 115.922 C 190.036 122.478,180.264 124.751,170.773 121.988 C 163.701 119.930,157.024 112.882,155.431 105.795 L 155.241 104.948 188.542 105.035 L 221.843 105.123 221.971 104.593 C 222.252 103.430,222.342 95.836,222.102 93.517 C 219.679 70.072,198.118 53.034,174.167 55.636 M267.083 55.637 C 249.103 57.862,233.556 71.204,229.184 88.162 C 227.792 93.562,227.841 92.510,227.762 118.385 L 227.690 141.875 238.315 141.875 L 248.941 141.875 249.006 119.323 L 249.071 96.771 249.547 94.513 C 250.693 89.068,252.710 85.344,256.718 81.275 C 264.030 73.849,273.615 72.588,284.890 77.568 C 285.803 77.971,286.618 78.259,286.702 78.208 C 287.230 77.881,299.372 63.666,299.234 63.536 C 298.392 62.745,292.565 59.941,288.818 58.524 C 282.301 56.059,273.317 54.866,267.083 55.637 M81.250 56.076 C 60.755 58.007,43.539 75.144,39.088 98.044 C 36.402 111.863,37.567 128.849,42.422 146.623 C 45.107 156.456,50.162 170.170,51.018 169.946 C 51.275 169.879,68.581 159.751,68.923 159.467 C 68.962 159.436,68.482 158.254,67.859 156.840 C 64.630 149.524,61.521 140.987,59.203 133.075 L 58.792 131.670 59.969 132.727 C 71.894 143.432,93.699 145.225,108.490 136.718 C 132.679 122.804,137.960 90.575,119.416 70.037 C 109.986 59.593,96.456 54.644,81.250 56.076 M302.396 76.908 C 299.760 80.018,296.823 83.484,295.869 84.612 L 294.133 86.661 299.487 94.112 C 302.431 98.210,304.995 101.703,305.185 101.875 C 305.636 102.284,316.677 117.594,317.083 118.374 C 317.255 118.703,321.099 124.121,325.625 130.412 L 333.854 141.851 345.990 141.863 C 352.664 141.870,358.125 141.821,358.125 141.756 C 358.125 141.577,329.365 101.604,329.059 101.358 C 328.745 101.106,318.160 86.356,317.804 85.675 C 317.296 84.704,307.596 71.273,307.396 71.264 C 307.281 71.259,305.031 73.799,302.396 76.908 M185.174 74.273 C 192.104 76.117,199.346 82.049,201.463 87.617 L 201.656 88.125 178.950 88.125 L 156.244 88.125 156.569 87.344 C 160.728 77.349,173.977 71.295,185.174 74.273 M92.292 74.772 C 106.632 77.993,115.220 92.986,110.608 106.750 C 104.627 124.602,82.061 129.708,69.164 116.127 C 59.978 106.455,60.040 91.474,69.305 81.863 C 73.479 77.533,78.118 75.250,84.688 74.291 C 86.003 74.099,90.583 74.389,92.292 74.772 " stroke="none" fill="#1c94d4" fill-rule="evenodd"></path><path id="path1" d="M141.536 160.990 C 138.113 165.544,135.281 169.341,135.243 169.427 C 135.205 169.513,149.193 169.583,166.328 169.583 L 197.482 169.583 203.688 161.355 C 207.102 156.830,209.927 153.033,209.965 152.918 C 210.011 152.778,199.658 152.708,178.897 152.708 L 147.760 152.708 141.536 160.990 " stroke="none" fill="#f35c24" fill-rule="evenodd"></path><path id="path2" d="M337.365 59.226 C 335.630 61.542,330.597 68.234,326.181 74.096 C 321.765 79.959,318.041 84.932,317.905 85.149 C 317.668 85.529,328.788 101.536,329.194 101.399 C 329.354 101.344,362.292 55.291,362.292 55.121 C 362.292 55.054,357.393 55.003,351.406 55.007 L 340.521 55.014 337.365 59.226 M301.326 107.135 C 299.251 109.914,292.754 118.563,286.889 126.354 L 276.224 140.521 288.678 140.575 C 300.330 140.625,301.153 140.605,301.477 140.262 C 303.173 138.466,317.107 118.420,316.896 118.081 C 316.162 116.905,305.368 102.083,305.246 102.083 C 305.166 102.083,303.402 104.357,301.326 107.135 " stroke="none" fill="#6bcbeb" fill-rule="evenodd"></path><path id="path3" d="" stroke="none" fill="#5094d8" fill-rule="evenodd"></path><path id="path4" d="" stroke="none" fill="#5094d8" fill-rule="evenodd"></path></g></svg>